<svg width="27" height="21" viewBox="0 0 27 21" fill="none" xmlns="http://www.w3.org/2000/svg">
<path d="M7.48848 2.44697L14.5971 9.53447C14.6814 9.61885 14.7411 9.71025 14.7759 9.80869C14.8114 9.90713 14.8291 10.0126 14.8291 10.1251C14.8291 10.2376 14.8114 10.3431 14.7759 10.4415C14.7411 10.5399 14.6814 10.6313 14.5971 10.7157L7.48848 17.8243C7.2916 18.0212 7.04551 18.1196 6.7502 18.1196C6.45488 18.1196 6.20176 18.0142 5.99082 17.8032C5.77989 17.5923 5.67442 17.3462 5.67442 17.0649C5.67442 16.7837 5.77989 16.5376 5.99082 16.3267L12.1924 10.1251L5.99082 3.92354C5.79395 3.72666 5.69551 3.48423 5.69551 3.19623C5.69551 2.90766 5.80098 2.65791 6.01191 2.44697C6.22285 2.23604 6.46895 2.13057 6.7502 2.13057C7.03145 2.13057 7.27754 2.23604 7.48848 2.44697Z" fill="#BA97FF"/>
<path d="M19.5115 17.803L12.4029 10.7155C12.3186 10.6312 12.2589 10.5397 12.2241 10.4413C12.1886 10.3429 12.1709 10.2374 12.1709 10.1249C12.1709 10.0124 12.1886 9.90693 12.2241 9.8085C12.2589 9.71006 12.3186 9.61865 12.4029 9.53428L19.5115 2.42568C19.7084 2.22881 19.9545 2.13037 20.2498 2.13037C20.5451 2.13037 20.7982 2.23584 21.0092 2.44678C21.2201 2.65772 21.3256 2.90381 21.3256 3.18506C21.3256 3.46631 21.2201 3.7124 21.0092 3.92334L14.8076 10.1249L21.0092 16.3265C21.206 16.5233 21.3045 16.7658 21.3045 17.0538C21.3045 17.3423 21.199 17.5921 20.9881 17.803C20.7771 18.014 20.531 18.1194 20.2498 18.1194C19.9686 18.1194 19.7225 18.014 19.5115 17.803Z" fill="#BA97FF"/>
</svg>
