<svg width="27" height="27" viewBox="0 0 27 27" fill="none" xmlns="http://www.w3.org/2000/svg">
<path d="M23.4367 0.551575H3.00813C2.26931 0.551575 1.56075 0.845069 1.03833 1.36749C0.515906 1.88991 0.222412 2.59847 0.222412 3.33729L0.222412 23.7659C0.222412 24.5047 0.515906 25.2132 1.03833 25.7357C1.56075 26.2581 2.26931 26.5516 3.00813 26.5516H10.9735V17.7122H7.31728V13.5516H10.9735V10.3805C10.9735 6.77358 13.1209 4.78122 16.4097 4.78122C17.9848 4.78122 19.6319 5.06211 19.6319 5.06211V8.60229H17.8171C16.029 8.60229 15.4713 9.71193 15.4713 10.85V13.5516H19.463L18.8246 17.7122H15.4713V26.5516H23.4367C24.1755 26.5516 24.8841 26.2581 25.4065 25.7357C25.9289 25.2132 26.2224 24.5047 26.2224 23.7659V3.33729C26.2224 2.59847 25.9289 1.88991 25.4065 1.36749C24.8841 0.845069 24.1755 0.551575 23.4367 0.551575Z" fill="#BA97FF"/>
</svg>
