<svg width="161" height="35" viewBox="0 0 161 35" fill="none" xmlns="http://www.w3.org/2000/svg">
<g clip-path="url(#clip0_80_1114)">
<path d="M47.672 11.1999L47.077 11.1089C45.8131 10.8425 44.5256 10.7049 43.234 10.6982C41.099 10.6599 38.9921 11.188 37.1276 12.2289C35.324 13.2639 33.8637 14.8053 32.9276 16.6622C31.9227 18.602 31.4195 20.9128 31.418 23.5946C31.418 25.9108 31.8146 27.9237 32.608 29.6332C33.3179 31.2664 34.4999 32.65 36.0021 33.6063C37.5043 34.5626 39.2582 35.0479 41.0383 34.9999C42.5903 35.0303 44.1248 34.6683 45.4996 33.9476C46.4655 33.4396 47.3286 32.7568 48.0453 31.9339H48.3136L48.7663 34.5332H53.1996V0.466553H47.672V11.1999ZM45.6373 30.0486C44.786 30.3916 43.8765 30.5675 42.9586 30.5666C41.19 30.5666 39.7721 29.9109 38.705 28.5996C37.6379 27.2882 37.1027 25.4869 37.0996 23.1956C37.0996 20.5729 37.7397 18.5297 39.02 17.0659C40.3002 15.6021 42.0237 14.8702 44.1906 14.8702C44.8492 14.8769 45.5065 14.9299 46.1576 15.0289C46.6782 15.0784 47.1878 15.2099 47.6673 15.4186V28.7652C47.0736 29.3143 46.386 29.7522 45.6373 30.0579V30.0486Z" fill="white"/>
<path d="M69.3114 10.7075C67.0854 10.7075 65.1332 11.1952 63.4547 12.1705C61.7702 13.1538 60.4106 14.6091 59.544 16.3565C58.6107 18.1719 58.144 20.345 58.144 22.8759C58.144 26.6885 59.2267 29.662 61.392 31.7962C63.5574 33.9304 66.6094 34.9983 70.548 34.9999C71.9225 35.0051 73.2942 34.8745 74.643 34.6102C75.926 34.3572 77.1777 33.9661 78.3764 33.4435V29.4185H78.0497C76.9202 29.837 75.7571 30.1586 74.573 30.3799C73.5022 30.584 72.4151 30.691 71.325 30.6995C68.9155 30.6995 67.0488 29.9995 65.725 28.5995C64.6533 27.4686 64.0147 25.959 63.8094 24.0705H78.8337C78.9255 22.6379 78.9862 21.3872 79.0157 20.3185C79.0157 17.3287 78.1602 14.9806 76.449 13.2742C74.7379 11.5677 72.3587 10.7122 69.3114 10.7075ZM73.705 20.7665H63.8537C63.9982 19.4242 64.4658 18.1368 65.2164 17.0145C66.2088 15.6145 67.531 14.9145 69.183 14.9145C70.6188 14.9145 71.7552 15.4255 72.592 16.4475C73.4289 17.4695 73.7999 18.9092 73.705 20.7665Z" fill="white"/>
<path d="M97.3114 10.7075C95.7146 10.7097 94.135 11.0359 92.668 11.6665C91.4728 12.1682 90.3768 12.8793 89.4317 13.7665H89.0304L88.5637 11.1602H84.1304V34.5332H89.6674V16.8582C90.3724 16.3661 91.1418 15.9735 91.954 15.6915C92.9371 15.3342 93.9741 15.148 95.02 15.1409C96.392 15.1409 97.4747 15.5298 98.268 16.3075C99.0614 17.0853 99.4573 18.161 99.4557 19.5345V34.5332H105V18.8042C105 16.2126 104.336 14.2145 103.009 12.8099C101.682 11.4052 99.7831 10.7044 97.3114 10.7075Z" fill="white"/>
<path d="M157.815 12.8333C156.124 11.4147 153.601 10.7053 150.244 10.7053C148.863 10.7066 147.485 10.837 146.128 11.095C144.902 11.3113 143.707 11.6724 142.567 12.1707V16.5667H142.889C143.934 16.0542 145.041 15.6771 146.181 15.4443C147.352 15.1728 148.549 15.0273 149.751 15.0103C151.368 15.0103 152.641 15.3611 153.571 16.0627C154.501 16.7642 154.968 17.8321 154.971 19.2663V20.8203H151.252C147.927 20.8203 145.38 21.4309 143.61 22.652C141.84 23.8731 140.955 25.7335 140.957 28.2333C140.957 30.2167 141.59 31.8407 142.856 33.1053C144.123 34.37 145.792 35.0015 147.866 35C149.457 35.006 151.027 34.6291 152.442 33.901C153.364 33.4316 154.211 32.8285 154.957 32.1113V34.5333H160.356V19.215C160.356 16.3777 159.509 14.2504 157.815 12.8333ZM154.957 28.8517C154.284 29.4077 153.527 29.8535 152.715 30.1723C151.799 30.5425 150.821 30.7364 149.833 30.744C148.734 30.744 147.882 30.457 147.266 29.876C146.65 29.295 146.352 28.5017 146.352 27.496C146.32 26.774 146.537 26.063 146.968 25.4823C147.424 24.9392 148.041 24.5551 148.729 24.3857C149.657 24.1526 150.611 24.0443 151.567 24.0637H154.957V28.8517Z" fill="white"/>
<path d="M23.6528 1.50967C22.728 1.48 21.8272 1.80754 21.1375 2.42433C20.8064 2.72383 20.5447 3.09195 20.3706 3.50302C20.1965 3.91408 20.1142 4.35818 20.1295 4.80433C20.1095 5.25417 20.1896 5.70284 20.3639 6.11802C20.5382 6.5332 20.8024 6.90455 21.1375 7.20533C21.8333 7.80934 22.7319 8.12776 23.6528 8.09667C24.5737 8.12776 25.4723 7.80934 26.1681 7.20533C26.5032 6.90455 26.7674 6.5332 26.9417 6.11802C27.116 5.70284 27.1961 5.25417 27.1761 4.80433C27.1914 4.35818 27.1091 3.91408 26.935 3.50302C26.7609 3.09195 26.4992 2.72383 26.1681 2.42433C25.4784 1.80754 24.5776 1.48 23.6528 1.50967Z" fill="white"/>
<path d="M15.785 11.4543C14.9217 11.3633 14.0607 11.263 13.1997 11.1627C12.0493 11.0273 10.8943 10.892 9.744 10.7847V8.32767C9.744 7.04744 10.0341 6.02544 10.6143 5.26167C11.1946 4.49789 12.1403 4.11678 13.4517 4.11833C14.0499 4.12937 14.6462 4.19024 15.2343 4.30033C15.8564 4.40653 16.4689 4.56259 17.066 4.767H17.339V0.870333C16.4732 0.587149 15.586 0.374128 14.686 0.233333C13.8425 0.0888617 12.989 0.0108441 12.1333 0C9.71911 0 7.79411 0.679 6.35833 2.037C4.92256 3.395 4.20311 5.26244 4.2 7.63933V10.6003C2.7857 10.6584 1.37977 10.8467 0 11.1627L0 15.281C1.37977 14.965 2.7857 14.7768 4.2 14.7187V34.552H9.744V14.903C10.8943 15.0103 12.0493 15.1363 13.1997 15.281C15.7547 15.5797 18.3073 15.8783 20.8623 15.8667V34.5333H26.397V11.1627C24.581 11.5726 22.7239 11.7723 20.8623 11.7577C19.1658 11.745 17.471 11.6438 15.785 11.4543Z" fill="white"/>
<path d="M135.879 2.42653C135.174 1.83409 134.283 1.50928 133.362 1.50928C132.441 1.50928 131.55 1.83409 130.846 2.42653C130.514 2.72547 130.253 3.09316 130.079 3.50387C129.904 3.91457 129.822 4.35837 129.838 4.80419C129.817 5.2544 129.897 5.70347 130.072 6.11906C130.246 6.53464 130.51 6.90639 130.846 7.20753C131.557 7.78439 132.446 8.09917 133.362 8.09917C134.278 8.09917 135.167 7.78439 135.879 7.20753C136.213 6.90586 136.477 6.53396 136.65 6.11846C136.824 5.70297 136.904 5.25416 136.884 4.80419C136.9 4.35859 136.817 3.915 136.644 3.50435C136.47 3.09371 136.209 2.72588 135.879 2.42653Z" fill="white"/>
<path d="M125.3 11.4707C124.348 11.3797 123.396 11.27 122.444 11.1627C121.14 11.0157 119.833 10.8687 118.529 10.7567V5.17065H113.003V10.6073C111.59 10.6701 110.184 10.8559 108.803 11.1627V15.281C110.184 14.9742 111.59 14.7884 113.003 14.7257V28.3663C113.026 29.0473 113.121 29.724 113.288 30.3847C113.435 30.9678 113.663 31.5277 113.965 32.0483C114.011 32.13 114.065 32.207 114.114 32.2817C114.585 33.0032 115.226 33.5979 115.981 34.013C116.139 34.1055 116.303 34.1888 116.471 34.2627C116.501 34.2767 116.534 34.286 116.562 34.3C117.635 34.7297 118.777 34.9614 119.933 34.9837C120.15 34.9837 120.372 34.9977 120.596 34.9977C120.743 34.9977 120.883 34.9977 121.028 34.9977C121.768 34.9857 122.507 34.9186 123.237 34.797L123.366 34.7783H123.41C124.132 34.6509 124.842 34.4652 125.533 34.223L125.629 34.1926V30.4687H125.356C125.207 30.5037 125.057 30.5293 124.908 30.5573C124.174 30.7009 123.431 30.7883 122.684 30.8187C122.493 30.8187 122.299 30.835 122.108 30.835C121.875 30.835 121.641 30.835 121.431 30.8047C121.079 30.7752 120.731 30.7047 120.395 30.5947C120.285 30.5593 120.176 30.5173 120.071 30.4687C120.008 30.4407 119.945 30.408 119.882 30.3753C119.458 30.1448 119.117 29.7863 118.909 29.351C118.643 28.7388 118.517 28.0745 118.543 27.4073V14.8727C119.852 14.9847 121.163 15.134 122.474 15.281C125.169 15.5867 127.867 15.8923 130.571 15.8667V34.5333H136.108V11.1627C134.289 11.5603 132.433 11.759 130.571 11.7553C128.81 11.755 127.051 11.66 125.3 11.4707Z" fill="white"/>
</g>
<defs>
<clipPath id="clip0_80_1114">
<rect width="160.356" height="35" fill="white"/>
</clipPath>
</defs>
</svg>
