<svg width="215" height="48" viewBox="0 0 215 48" fill="none" xmlns="http://www.w3.org/2000/svg">
<g clip-path="url(#clip0_66_16)">
<path d="M63.9176 15.5266L63.1198 15.4046C61.4253 15.0475 59.699 14.863 57.9673 14.854C55.1048 14.8026 52.2798 15.5107 49.7801 16.9063C47.3618 18.2939 45.4039 20.3607 44.1489 22.8504C42.8015 25.4511 42.1268 28.5494 42.1248 32.145C42.1248 35.2505 42.6566 37.9493 43.7203 40.2414C44.6721 42.4311 46.2569 44.2863 48.271 45.5684C50.2851 46.8506 52.6366 47.5013 55.0234 47.4369C57.1042 47.4777 59.1617 46.9924 61.005 46.026C62.2999 45.3449 63.4572 44.4294 64.4181 43.3261H64.7779L65.3848 46.8112H71.3289V1.13574H63.9176V15.5266ZM61.1896 40.7983C60.0481 41.2583 58.8287 41.4941 57.5981 41.4928C55.2267 41.4928 53.3257 40.6137 51.8949 38.8555C50.4642 37.0973 49.7467 34.6822 49.7425 31.61C49.7425 28.0936 50.6008 25.3542 52.3173 23.3916C54.0337 21.429 56.3446 20.4477 59.2499 20.4477C60.1329 20.4566 61.0142 20.5277 61.8872 20.6604C62.5852 20.7269 63.2684 20.9032 63.9113 21.1829V39.0777C63.1153 39.8139 62.1934 40.401 61.1896 40.8108V40.7983Z" fill="#160544"/>
<path d="M92.9308 14.8665C89.9462 14.8665 87.3288 15.5203 85.0784 16.828C82.8198 18.1464 80.997 20.0975 79.8351 22.4404C78.5837 24.8744 77.958 27.788 77.958 31.1814C77.958 36.2933 79.4096 40.2799 82.3128 43.1414C85.216 46.0029 89.308 47.4347 94.5889 47.4368C96.4318 47.4438 98.2708 47.2688 100.079 46.9144C101.799 46.5752 103.478 46.0507 105.085 45.3501V39.9535H104.647C103.132 40.5146 101.573 40.9458 99.9855 41.2425C98.5497 41.5162 97.0922 41.6596 95.6307 41.6711C92.4 41.6711 89.8972 40.7325 88.1224 38.8555C86.6854 37.3392 85.8292 35.3151 85.5539 32.7831H105.698C105.821 30.8623 105.902 29.1854 105.942 27.7526C105.942 23.744 104.795 20.5957 102.501 18.3078C100.207 16.0198 97.0166 14.8727 92.9308 14.8665ZM98.8217 28.3532H85.6133C85.8071 26.5534 86.434 24.8273 87.4404 23.3227C88.771 21.4456 90.5438 20.5071 92.7587 20.5071C94.6838 20.5071 96.2073 21.1922 97.3294 22.5625C98.4515 23.9327 98.9489 25.863 98.8217 28.3532Z" fill="#160544"/>
<path d="M130.472 14.8665C128.331 14.8693 126.213 15.3068 124.247 16.1523C122.644 16.8248 121.175 17.7784 119.907 18.9679H119.369L118.744 15.4734H112.8V46.8111H120.223V23.1131C121.169 22.4533 122.2 21.927 123.289 21.5489C124.607 21.0698 125.998 20.8201 127.4 20.8105C129.24 20.8105 130.691 21.3319 131.755 22.3748C132.819 23.4176 133.349 24.8598 133.347 26.7014V46.8111H140.78V25.7222C140.78 22.2475 139.891 19.5685 138.112 17.6852C136.333 15.8019 133.786 14.8623 130.472 14.8665Z" fill="#160544"/>
<path d="M211.593 17.7167C209.326 15.8146 205.942 14.8635 201.441 14.8635C199.589 14.8652 197.742 15.0401 195.923 15.386C194.28 15.676 192.677 16.1602 191.149 16.8282V22.7222H191.58C192.982 22.0351 194.465 21.5295 195.995 21.2174C197.565 20.8533 199.169 20.6583 200.781 20.6355C202.948 20.6355 204.655 21.1058 205.902 22.0465C207.15 22.9871 207.775 24.4189 207.779 26.3418V28.4254H202.793C198.336 28.4254 194.921 29.244 192.547 30.8812C190.174 32.5184 188.988 35.0129 188.99 38.3645C188.99 41.0237 189.839 43.2011 191.537 44.8967C193.234 46.5923 195.473 47.4391 198.253 47.437C200.387 47.4451 202.491 46.9397 204.388 45.9635C205.625 45.3342 206.761 44.5256 207.761 43.564V46.8113H215V26.273C215 22.4688 213.864 19.6167 211.593 17.7167ZM207.761 39.1935C206.859 39.9391 205.844 40.5368 204.754 40.9642C203.526 41.4605 202.215 41.7206 200.891 41.7307C199.417 41.7307 198.275 41.3459 197.449 40.5669C196.623 39.7879 196.223 38.7243 196.223 37.3759C196.18 36.4078 196.472 35.4546 197.049 34.676C197.66 33.9478 198.488 33.4329 199.411 33.2057C200.654 32.8932 201.933 32.748 203.215 32.7739H207.761V39.1935Z" fill="#160544"/>
<path d="M31.7133 2.53398C30.4734 2.4942 29.2657 2.93336 28.3409 3.76033C27.897 4.16189 27.5461 4.65546 27.3127 5.2066C27.0793 5.75774 26.9689 6.35317 26.9894 6.95136C26.9626 7.55449 27.0699 8.15605 27.3036 8.71271C27.5373 9.26936 27.8916 9.76726 28.3409 10.1705C29.2738 10.9804 30.4786 11.4073 31.7133 11.3656C32.9481 11.4073 34.1528 10.9804 35.0858 10.1705C35.5351 9.76726 35.8893 9.26936 36.123 8.71271C36.3567 8.15605 36.4641 7.55449 36.4373 6.95136C36.4577 6.35317 36.3474 5.75774 36.1139 5.2066C35.8805 4.65546 35.5297 4.16189 35.0858 3.76033C34.161 2.93336 32.9533 2.4942 31.7133 2.53398Z" fill="#160544"/>
<path d="M21.164 15.8676C20.0065 15.7456 18.8521 15.6111 17.6977 15.4765C16.1553 15.2951 14.6068 15.1136 13.0644 14.9697V11.6755C13.0644 9.95899 13.4534 8.58873 14.2313 7.56468C15.0093 6.54063 16.2774 6.02965 18.0356 6.03173C18.8377 6.04653 19.6371 6.12815 20.4257 6.27575C21.2598 6.41814 22.081 6.62738 22.8815 6.90145H23.2476V1.67692C22.0867 1.29724 20.8972 1.01163 19.6905 0.822855C18.5596 0.629153 17.4152 0.524549 16.268 0.51001C13.0311 0.51001 10.4501 1.42039 8.52504 3.24115C6.6 5.06191 5.63539 7.56572 5.63122 10.7526V14.7226C3.73498 14.8005 1.84994 15.0529 0 15.4765L0 20.9983C1.84994 20.5746 3.73498 20.3222 5.63122 20.2443V46.8362H13.0644V20.4915C14.6068 20.6354 16.1553 20.8043 17.6977 20.9983C21.1233 21.3987 24.5459 21.7992 27.9715 21.7835V46.8112H35.3922V15.4765C32.9574 16.0262 30.4675 16.2939 27.9715 16.2743C25.6968 16.2574 23.4245 16.1216 21.164 15.8676Z" fill="#160544"/>
<path d="M182.183 3.76351C181.238 2.96919 180.043 2.53369 178.808 2.53369C177.574 2.53369 176.379 2.96919 175.434 3.76351C174.991 4.16432 174.64 4.65731 174.406 5.20797C174.173 5.75863 174.062 6.35366 174.083 6.95141C174.056 7.55503 174.163 8.15713 174.397 8.71433C174.631 9.27153 174.985 9.76996 175.434 10.1737C176.389 10.9472 177.58 11.3692 178.808 11.3692C180.037 11.3692 181.228 10.9472 182.183 10.1737C182.631 9.76925 182.984 9.27062 183.217 8.71354C183.451 8.15645 183.558 7.5547 183.531 6.95141C183.551 6.35396 183.441 5.75921 183.209 5.20863C182.976 4.65804 182.626 4.16488 182.183 3.76351Z" fill="#160544"/>
<path d="M167.998 15.8895C166.722 15.7674 165.445 15.6204 164.169 15.4765C162.42 15.2794 160.668 15.0823 158.919 14.9321V7.44263H151.511V14.7319C149.616 14.8161 147.732 15.0652 145.88 15.4765V20.9982C147.732 20.5869 149.616 20.3378 151.511 20.2537V38.5426C151.541 39.4557 151.669 40.3629 151.893 41.2487C152.091 42.0306 152.396 42.7813 152.8 43.4793C152.863 43.5888 152.935 43.692 153 43.7922C153.631 44.7596 154.491 45.5569 155.503 46.1135C155.715 46.2374 155.935 46.3492 156.16 46.4482C156.201 46.467 156.244 46.4795 156.282 46.4983C157.721 47.0745 159.253 47.385 160.803 47.4149C161.094 47.4149 161.391 47.4337 161.691 47.4337C161.888 47.4337 162.076 47.4337 162.27 47.4337C163.263 47.4176 164.253 47.3277 165.233 47.1646L165.405 47.1396H165.464C166.432 46.9688 167.384 46.7198 168.311 46.395L168.439 46.3544V41.3613H168.073C167.873 41.4083 167.673 41.4427 167.472 41.4802C166.489 41.6727 165.492 41.7899 164.491 41.8306C164.235 41.8306 163.975 41.8525 163.718 41.8525C163.406 41.8525 163.093 41.8525 162.811 41.8118C162.339 41.7724 161.873 41.6779 161.422 41.5303C161.274 41.4829 161.129 41.4265 160.987 41.3613C160.903 41.3238 160.818 41.28 160.734 41.2362C160.165 40.9271 159.709 40.4465 159.429 39.8628C159.072 39.042 158.904 38.1513 158.938 37.2568V20.4507C160.693 20.6009 162.451 20.8011 164.21 20.9982C167.823 21.4081 171.439 21.8179 175.065 21.7835V46.8111H182.489V15.4765C180.051 16.0097 177.561 16.2761 175.065 16.2711C172.704 16.2707 170.345 16.1433 167.998 15.8895Z" fill="#160544"/>
</g>
<defs>
<clipPath id="clip0_66_16">
<rect width="215" height="46.9268" fill="white" transform="translate(0 0.51001)"/>
</clipPath>
</defs>
</svg>
