<svg width="48" height="28" viewBox="0 0 48 28" fill="none" xmlns="http://www.w3.org/2000/svg">
<line x1="1.84615" y1="-1.84615" x2="39.6923" y2="-1.84615" transform="matrix(-1 0 0 1 48 4)" stroke="#160544" stroke-width="3.69231" stroke-linecap="round"/>
<line x1="1.84615" y1="-1.84615" x2="39.6923" y2="-1.84615" transform="matrix(-1 0 0 1 48 4)" stroke="#160544" stroke-width="3.69231" stroke-linecap="round"/>
<line x1="1.84615" y1="-1.84615" x2="39.6923" y2="-1.84615" transform="matrix(-1 0 0 1 48 4)" stroke="#160544" stroke-width="3.69231" stroke-linecap="round"/>
<line x1="1.84615" y1="-1.84615" x2="27.6923" y2="-1.84615" transform="matrix(-1 0 0 1 48 14.1538)" stroke="#160544" stroke-width="3.69231" stroke-linecap="round"/>
<line x1="1.84615" y1="-1.84615" x2="27.6923" y2="-1.84615" transform="matrix(-1 0 0 1 48 14.1538)" stroke="#160544" stroke-width="3.69231" stroke-linecap="round"/>
<line x1="1.84615" y1="-1.84615" x2="27.6923" y2="-1.84615" transform="matrix(-1 0 0 1 48 14.1538)" stroke="#160544" stroke-width="3.69231" stroke-linecap="round"/>
<line x1="1.84615" y1="-1.84615" x2="19.3846" y2="-1.84615" transform="matrix(-1 0 0 1 48 24.3076)" stroke="#160544" stroke-width="3.69231" stroke-linecap="round"/>
<line x1="1.84615" y1="-1.84615" x2="19.3846" y2="-1.84615" transform="matrix(-1 0 0 1 48 24.3076)" stroke="#160544" stroke-width="3.69231" stroke-linecap="round"/>
<line x1="1.84615" y1="-1.84615" x2="19.3846" y2="-1.84615" transform="matrix(-1 0 0 1 48 24.3076)" stroke="#160544" stroke-width="3.69231" stroke-linecap="round"/>
</svg>
