<svg width="29" height="29" viewBox="0 0 29 29" fill="none" xmlns="http://www.w3.org/2000/svg">
<path d="M14.5 0C18.4397 0 18.9312 0.0144999 20.4769 0.0869999C22.0212 0.1595 23.0724 0.40165 23.9975 0.76125C24.9545 1.12955 25.7607 1.62835 26.5669 2.4331C27.3042 3.15795 27.8747 4.03475 28.2388 5.0025C28.5969 5.92615 28.8405 6.97885 28.913 8.5231C28.9812 10.0688 29 10.5604 29 14.5C29 18.4397 28.9855 18.9312 28.913 20.4769C28.8405 22.0212 28.5969 23.0724 28.2388 23.9975C27.8758 24.9658 27.3051 25.8428 26.5669 26.5669C25.8418 27.304 24.9651 27.8744 23.9975 28.2388C23.0738 28.5969 22.0212 28.8405 20.4769 28.913C18.9312 28.9812 18.4397 29 14.5 29C10.5604 29 10.0688 28.9855 8.5231 28.913C6.97885 28.8405 5.9276 28.5969 5.0025 28.2388C4.03437 27.8755 3.15741 27.3049 2.4331 26.5669C1.69564 25.8422 1.1251 24.9653 0.76125 23.9975C0.40165 23.0738 0.1595 22.0212 0.0869999 20.4769C0.0188499 18.9312 0 18.4397 0 14.5C0 10.5604 0.0144999 10.0688 0.0869999 8.5231C0.1595 6.9774 0.40165 5.9276 0.76125 5.0025C1.12409 4.03416 1.69477 3.15712 2.4331 2.4331C3.15762 1.69539 4.03452 1.12481 5.0025 0.76125C5.9276 0.40165 6.9774 0.1595 8.5231 0.0869999C10.0688 0.0188499 10.5604 0 14.5 0ZM14.5 7.25C12.5772 7.25 10.7331 8.01384 9.37348 9.37348C8.01384 10.7331 7.25 12.5772 7.25 14.5C7.25 16.4228 8.01384 18.2669 9.37348 19.6265C10.7331 20.9862 12.5772 21.75 14.5 21.75C16.4228 21.75 18.2669 20.9862 19.6265 19.6265C20.9862 18.2669 21.75 16.4228 21.75 14.5C21.75 12.5772 20.9862 10.7331 19.6265 9.37348C18.2669 8.01384 16.4228 7.25 14.5 7.25ZM23.925 6.8875C23.925 6.4068 23.734 5.94578 23.3941 5.60587C23.0542 5.26596 22.5932 5.075 22.1125 5.075C21.6318 5.075 21.1708 5.26596 20.8309 5.60587C20.491 5.94578 20.3 6.4068 20.3 6.8875C20.3 7.36821 20.491 7.82922 20.8309 8.16913C21.1708 8.50904 21.6318 8.7 22.1125 8.7C22.5932 8.7 23.0542 8.50904 23.3941 8.16913C23.734 7.82922 23.925 7.36821 23.925 6.8875ZM14.5 10.15C15.6537 10.15 16.7601 10.6083 17.5759 11.4241C18.3917 12.2399 18.85 13.3463 18.85 14.5C18.85 15.6537 18.3917 16.7601 17.5759 17.5759C16.7601 18.3917 15.6537 18.85 14.5 18.85C13.3463 18.85 12.2399 18.3917 11.4241 17.5759C10.6083 16.7601 10.15 15.6537 10.15 14.5C10.15 13.3463 10.6083 12.2399 11.4241 11.4241C12.2399 10.6083 13.3463 10.15 14.5 10.15Z" fill="#BA97FF"/>
</svg>
