<svg width="45" height="45" viewBox="0 0 45 45" fill="none" xmlns="http://www.w3.org/2000/svg">
<path d="M22.5 3.9823C28.4735 3.9823 29.2699 3.9823 31.6593 4.18142C33.0531 4.18142 34.4469 4.38053 35.8407 4.97788C36.8363 5.37611 37.6327 5.97345 38.4292 6.5708C39.2257 7.36726 39.823 8.16372 40.2212 9.15929C40.6195 10.5531 41.0177 11.9469 41.0177 13.3407C41.0177 15.7301 41.2168 16.5265 41.2168 22.5C41.2168 28.4735 41.2168 29.2699 41.0177 31.6593C41.0177 33.0531 40.8186 34.646 40.2212 36.0398C39.4248 38.031 38.031 39.4248 36.0398 40.2212C34.646 40.6195 33.2522 41.0177 31.8584 41.0177C29.469 41.0177 28.6726 41.2168 22.6991 41.2168C16.7257 41.2168 15.9292 41.2168 13.5398 41.0177C12.146 41.0177 10.7522 40.8186 9.35841 40.2212C8.36283 39.823 7.56637 39.2257 6.76991 38.4292C5.97345 37.6327 5.37611 36.8363 4.97788 35.8407C4.57965 34.4469 4.18142 33.0531 4.18142 31.6593C3.9823 29.2699 3.9823 28.4735 3.9823 22.5C3.9823 16.5265 3.9823 15.7301 4.18142 13.3407C4.18142 11.9469 4.38053 10.5531 4.97788 9.15929C5.77434 7.16814 7.36726 5.57522 9.35841 4.97788C10.5531 4.38053 11.9469 4.18142 13.3407 4.18142C15.7301 3.9823 16.5265 3.9823 22.5 3.9823ZM22.5 0C16.3274 0 15.531 0 13.1416 0.199115C11.3496 0.199115 9.35841 0.597345 7.76549 1.19469C6.17257 1.79204 4.97788 2.5885 3.78319 3.78319C2.5885 4.97788 1.79204 6.17257 1.19469 7.76549C0.597345 9.55752 0.199115 11.3496 0.199115 13.1416C0 15.531 0 16.3274 0 22.5C0 28.6726 0 29.469 0.199115 31.8584C0.199115 33.6504 0.597345 35.6416 1.19469 37.2345C1.79204 38.8274 2.5885 40.0221 3.78319 41.2168C4.97788 42.4115 6.17257 43.208 7.76549 43.8053C9.55752 44.4027 11.3496 44.8009 13.1416 44.8009C15.531 45 16.3274 45 22.5 45C28.6726 45 29.469 45 31.8584 44.8009C33.6504 44.8009 35.6416 44.4027 37.2345 43.8053C40.2212 42.6106 42.6106 40.2212 43.8053 37.2345C44.4027 35.4425 44.8009 33.6504 44.8009 31.8584C45 29.469 45 28.6726 45 22.5C45 16.3274 45 15.7301 44.8009 13.1416C44.8009 11.1504 44.4027 9.35841 43.8053 7.56637C43.208 5.97345 42.4115 4.77876 41.2168 3.58407C40.0221 2.38938 38.8274 1.59292 37.2345 0.995575C35.4425 0.39823 33.6504 0 31.8584 0C29.469 0 28.6726 0 22.5 0Z" fill="#160544"/>
<path d="M22.5001 10.9512C16.1284 10.9512 10.9514 16.1282 10.9514 22.4998C10.9514 28.8715 16.1284 34.0485 22.5001 34.0485C28.8718 34.0485 34.0488 28.8715 34.0488 22.4998C34.0488 16.1282 28.8718 10.9512 22.5001 10.9512ZM22.5001 30.0662C18.3187 30.0662 14.9337 26.6813 14.9337 22.4998C14.9337 18.3184 18.3187 14.9335 22.5001 14.9335C26.6815 14.9335 30.0665 18.3184 30.0665 22.4998C30.0665 26.6813 26.6815 30.0662 22.5001 30.0662Z" fill="#160544"/>
<path d="M37.2345 10.5532C37.2345 12.1462 36.0398 13.3408 34.4469 13.3408C33.0531 13.1417 31.8584 11.947 31.8584 10.5532C31.8584 9.15943 33.0531 7.76562 34.646 7.76562C36.0398 7.76562 37.2345 8.96032 37.2345 10.5532Z" fill="#160544"/>
</svg>
