<svg width="28" height="29" viewBox="0 0 28 29" fill="none" xmlns="http://www.w3.org/2000/svg">
<path d="M4.35636 23.579H8.46704V11.2292H4.35636V23.579ZM8.73397 7.42102C8.72211 6.80412 8.50856 6.294 8.09334 5.89064C7.67812 5.48728 7.12647 5.2856 6.4384 5.2856C5.75032 5.2856 5.18977 5.48728 4.75675 5.89064C4.32374 6.294 4.10723 6.80412 4.10723 7.42102C4.10723 8.02606 4.31781 8.53322 4.73896 8.94251C5.16011 9.35179 5.70879 9.55644 6.38501 9.55644H6.40281C7.10275 9.55644 7.66626 9.35179 8.09334 8.94251C8.52043 8.53322 8.73397 8.02606 8.73397 7.42102ZM19.1441 23.579H23.2548V16.4965C23.2548 14.6696 22.8218 13.2875 21.9558 12.3503C21.0897 11.4131 19.9449 10.9445 18.5213 10.9445C16.9079 10.9445 15.6681 11.6385 14.8021 13.0265H14.8377V11.2292H10.727C10.7626 12.0122 10.7626 16.1288 10.727 23.579H14.8377V16.6745C14.8377 16.2237 14.8792 15.8915 14.9623 15.678C15.1402 15.2627 15.4071 14.9098 15.763 14.6192C16.119 14.3285 16.5579 14.1832 17.0799 14.1832C18.456 14.1832 19.1441 15.1145 19.1441 16.977V23.579ZM27.4723 5.81946V22.9028C27.4723 24.3145 26.971 25.5216 25.9686 26.5241C24.9661 27.5266 23.759 28.0278 22.3473 28.0278H5.26392C3.85217 28.0278 2.64506 27.5266 1.64261 26.5241C0.640146 25.5216 0.138916 24.3145 0.138916 22.9028V5.81946C0.138916 4.40771 0.640146 3.20061 1.64261 2.19815C2.64506 1.19569 3.85217 0.694458 5.26392 0.694458H22.3473C23.759 0.694458 24.9661 1.19569 25.9686 2.19815C26.971 3.20061 27.4723 4.40771 27.4723 5.81946Z" fill="#BA97FF"/>
</svg>
