<svg width="44" height="44" viewBox="0 0 44 44" fill="none" xmlns="http://www.w3.org/2000/svg">
<path d="M9.81271 14.4062H0.834961V43.2186H9.81271V14.4062Z" fill="#160544"/>
<path d="M5.21962 10.648C8.14261 10.648 10.4392 8.35139 10.4392 5.4284C10.4392 2.50542 8.14261 0 5.21962 0C2.29663 0 0 2.29663 0 5.21962C0 8.14261 2.29663 10.648 5.21962 10.648Z" fill="#160544"/>
<path d="M24.0101 27.9772C24.0101 24.0103 25.8892 21.5049 29.4385 21.5049C32.9879 21.5049 34.2406 23.8015 34.2406 27.9772V43.0097H43.0095V24.8455C43.0095 17.1204 38.6251 13.3623 32.5703 13.3623C29.021 13.3623 25.6804 15.0326 24.0101 18.1644V14.4062H15.45V43.2185H24.0101V27.9772Z" fill="#160544"/>
</svg>
