<svg width="85" height="85" viewBox="0 0 85 85" fill="none" xmlns="http://www.w3.org/2000/svg">
<path d="M85 47.9712V59.1119C81.5996 59.11 78.2323 59.7783 75.0904 61.0786C71.9485 62.3789 69.0936 64.2857 66.6891 66.69C64.2846 69.0943 62.3775 71.9489 61.0768 75.0906C59.7762 78.2324 59.1075 81.5997 59.109 85H47.9683C47.9646 82.2296 48.2735 79.4675 48.8891 76.7664C49.5348 73.9198 50.5204 71.1611 51.8245 68.5497C51.9066 68.3769 51.986 68.2097 52.0795 68.0425C53.5153 65.2556 55.3006 62.6629 57.392 60.3274C58.3118 59.3003 59.287 58.3242 60.3131 57.4034C62.6528 55.3187 65.2447 53.5358 68.0283 52.0965C68.1926 52.003 68.3655 51.918 68.5468 51.8359C71.1598 50.5349 73.918 49.5486 76.7635 48.8977C79.466 48.284 82.2286 47.9733 85 47.9712Z" fill="#160544"/>
<path d="M37.0317 85H25.891C25.8925 81.5997 25.2238 78.2324 23.9231 75.0906C22.6225 71.9489 20.7154 69.0943 18.3109 66.69C15.9063 64.2857 13.0515 62.3789 9.9096 61.0786C6.76771 59.7783 3.40034 59.11 0 59.1119V47.9712C2.76445 47.9717 5.52028 48.2795 8.21667 48.8892C11.0621 49.5401 13.8203 50.5264 16.4333 51.8274C16.6062 51.9095 16.779 51.9945 16.9518 52.088C19.7359 53.5287 22.328 55.3135 24.667 57.4005C25.694 58.3166 26.6675 59.291 27.5825 60.3189C29.6725 62.6514 31.4576 65.2401 32.895 68.0227C32.9885 68.1955 33.0735 68.3684 33.1557 68.5412C34.4598 71.1526 35.4453 73.9113 36.091 76.7579C36.7139 79.4611 37.0295 82.226 37.0317 85Z" fill="#160544"/>
<path d="M84.9999 25.8882V37.0288C82.2352 37.0312 79.4789 36.7224 76.7833 36.108C73.9366 35.4651 71.1778 34.4815 68.5666 33.1783C68.3853 33.0905 68.2124 33.0055 68.0481 32.912C65.2608 31.4767 62.6681 29.6915 60.3329 27.5995C59.3007 26.6794 58.319 25.7043 57.3919 24.6783C55.3018 22.3427 53.5167 19.7513 52.0794 16.966C51.9859 16.7988 51.9066 16.6317 51.8244 16.4588C50.5179 13.8396 49.5324 11.0722 48.8891 8.21667C48.2748 5.52102 47.9659 2.76477 47.9683 0L59.1089 0C59.1071 3.40044 59.7755 6.76791 61.076 9.90983C62.3766 13.0518 64.2836 15.9065 66.6883 18.3109C69.0929 20.7152 71.9478 22.622 75.0899 23.9222C78.232 25.2223 81.5995 25.8904 84.9999 25.8882Z" fill="#160544"/>
<path d="M37.0316 0C37.034 2.76477 36.7251 5.52102 36.1108 8.21667C35.4666 11.0683 34.4811 13.8318 33.1754 16.4475C33.0933 16.6203 33.0083 16.7932 32.9148 16.966C31.4767 19.7508 29.6916 22.3422 27.6023 24.6783C26.6865 25.7046 25.7131 26.678 24.6868 27.5938C22.3522 29.6882 19.7595 31.4754 16.9716 32.912C16.7988 33.0055 16.6259 33.0905 16.4531 33.1727C13.8431 34.4801 11.0841 35.4658 8.23644 36.108C5.54086 36.7228 2.78457 37.0317 0.0197754 37.0288V25.8882C3.41855 25.8878 6.78395 25.2178 9.92373 23.9165C13.0635 22.6151 15.9161 20.7079 18.3186 18.3038C20.7211 15.8998 22.6265 13.0459 23.9257 9.90525C25.225 6.76462 25.8928 3.39878 25.8909 0L37.0316 0Z" fill="#160544"/>
</svg>
