<svg width="1512" height="982" viewBox="0 0 1512 982" fill="none" xmlns="http://www.w3.org/2000/svg">
<g clip-path="url(#clip0_477_250)">
<rect width="1512" height="982" fill="white"/>
<g clip-path="url(#clip1_477_250)">
<path d="M1643 195.682V432.257C1570.79 432.217 1499.29 446.41 1432.57 474.022C1365.85 501.634 1305.22 542.126 1254.16 593.181C1203.1 644.237 1162.6 704.855 1134.99 771.571C1107.37 838.287 1093.17 909.793 1093.2 982H856.622C856.544 923.168 863.103 864.516 876.176 807.155C889.888 746.707 910.816 688.126 938.509 632.672C940.253 629.002 941.938 625.452 943.924 621.902C974.415 562.72 1012.32 507.665 1056.74 458.068C1076.27 436.259 1096.98 415.531 1118.77 395.977C1168.45 351.708 1223.49 313.848 1282.6 283.284C1286.09 281.299 1289.76 279.494 1293.61 277.749C1349.1 250.122 1407.67 229.178 1468.1 215.356C1525.49 202.325 1584.15 195.726 1643 195.682Z" fill="url(#paint0_linear_477_250)"/>
<path d="M624.378 982H387.803C387.835 909.793 373.635 838.287 346.015 771.571C318.395 704.855 277.897 644.237 226.836 593.181C175.775 542.126 115.152 501.634 48.4334 474.022C-18.2857 446.41 -89.7928 432.217 -162 432.257V195.682C-103.296 195.691 -44.7753 202.23 12.4833 215.176C72.9079 228.997 131.479 249.942 186.967 277.568C190.637 279.313 194.307 281.118 197.977 283.104C257.099 313.697 312.141 351.598 361.811 395.916C383.62 415.369 404.291 436.06 423.723 457.888C468.104 507.421 506.012 562.392 536.535 621.481C538.521 625.151 540.326 628.822 542.07 632.492C569.763 687.945 590.691 746.527 604.403 806.975C617.631 864.378 624.332 923.092 624.378 982Z" fill="url(#paint1_linear_477_250)"/>
</g>
</g>
<defs>
<linearGradient id="paint0_linear_477_250" x1="1249.81" y1="195.682" x2="1249.81" y2="982" gradientUnits="userSpaceOnUse">
<stop stop-color="#BA97FF"/>
<stop offset="1" stop-color="#BA97FF" stop-opacity="0"/>
</linearGradient>
<linearGradient id="paint1_linear_477_250" x1="231.189" y1="195.682" x2="231.189" y2="982" gradientUnits="userSpaceOnUse">
<stop stop-color="#BA97FF"/>
<stop offset="1" stop-color="#BA97FF" stop-opacity="0"/>
</linearGradient>
<clipPath id="clip0_477_250">
<rect width="1512" height="982" fill="white"/>
</clipPath>
<clipPath id="clip1_477_250">
<rect width="1512" height="980" fill="white" transform="translate(0 2)"/>
</clipPath>
</defs>
</svg>
