<svg width="9356" height="6077" viewBox="0 0 9356 6077" fill="none" xmlns="http://www.w3.org/2000/svg">
<g clip-path="url(#clip0_80_879)">
<rect width="9354.86" height="6075.71" transform="translate(0.1875 0.324219)" fill="#DDCCFD"/>
<path d="M4132.22 6076.03L6601.79 6076.03C6602.5 5462.14 6534.1 4850.12 6397.9 4251.53C6255.16 3619.77 6036.94 3007.47 5747.93 2427.83C5728.77 2388.15 5709.61 2349.83 5689.09 2312.77C5370.92 1694.76 4975.07 1119.94 4511.14 602.306C4307.19 375.15 4091.17 159.129 3864.02 -44.8209C3345.66 -508.31 2770.57 -904.12 2152.52 -1222.76C2115.58 -1243.29 2078.63 -1261.08 2040.2 -1278.87C1460.33 -1568.26 847.766 -1786.91 215.704 -1930.1C-382.762 -2066.38 -994.667 -2134.85 -1608.45 -2134.21L-1608.45 335.358C1565.61 335.358 4132.22 2903.34 4132.22 6076.03Z" fill="#BA97FF"/>
</g>
<defs>
<clipPath id="clip0_80_879">
<rect width="9354.86" height="6075.71" fill="white" transform="translate(0.1875 0.324219)"/>
</clipPath>
</defs>
</svg>
