<svg width="9356" height="6058" viewBox="0 0 9356 6058" fill="none" xmlns="http://www.w3.org/2000/svg">
<g clip-path="url(#clip0_80_853)">
<rect width="9354.86" height="6057.15" transform="translate(0.1875 0.755859)" fill="white"/>
<g clip-path="url(#clip1_80_853)">
<path d="M11116.4 -887.398H0.1875V8144.52H11116.4V-887.398Z" fill="#160544"/>
<path d="M5866.66 0.755859H4027.98C4027.45 457.819 4078.37 913.489 4179.78 1359.16C4286.05 1829.53 4448.53 2285.41 4663.71 2716.97C4677.97 2746.52 4692.24 2775.05 4707.52 2802.64C4944.4 3262.77 5239.13 3690.74 5584.54 4076.14C5736.39 4245.27 5897.22 4406.1 6066.35 4557.95C6452.28 4903.04 6880.46 5197.73 7340.62 5434.97C7368.13 5450.26 7395.64 5463.5 7424.25 5476.74C7855.99 5692.21 8312.06 5855 8782.65 5961.61C9228.23 6063.08 9683.82 6114.05 10140.8 6113.58V4274.9C7777.6 4274.9 5866.66 2362.94 5866.66 0.755859Z" fill="#BA97FF"/>
<path d="M4274.33 10698.2L6113.01 10698.2C6113.54 10241.1 6062.62 9785.48 5961.21 9339.81C5854.94 8869.43 5692.46 8413.55 5477.28 7981.99C5463.02 7952.45 5448.75 7923.92 5433.47 7896.33C5196.59 7436.19 4901.86 7008.22 4556.45 6622.82C4404.6 6453.7 4243.77 6292.86 4074.64 6141.01C3688.71 5795.93 3260.53 5501.23 2800.37 5263.99C2772.86 5248.71 2745.36 5235.47 2716.74 5222.22C2285 5006.76 1828.93 4843.97 1358.34 4737.36C912.759 4635.89 457.173 4584.91 0.187353 4585.38L0.187192 6424.07C2363.39 6424.07 4274.33 8336.03 4274.33 10698.2Z" fill="#BA97FF"/>
</g>
</g>
<defs>
<clipPath id="clip0_80_853">
<rect width="9354.86" height="6057.15" fill="white" transform="translate(0.1875 0.755859)"/>
</clipPath>
<clipPath id="clip1_80_853">
<rect width="9354.86" height="6075.71" fill="white" transform="translate(0.1875 0.755859)"/>
</clipPath>
</defs>
</svg>
