<svg width="38" height="27" viewBox="0 0 38 27" fill="none" xmlns="http://www.w3.org/2000/svg">
<path d="M36.7263 4.76675C36.3086 3.20048 35.0556 1.94747 33.4893 1.5298C30.5656 0.694458 18.9753 0.694458 18.9753 0.694458C18.9753 0.694458 7.3849 0.694458 4.46121 1.42538C2.89494 1.94747 1.53751 3.20048 1.22426 4.76675C0.388916 7.69044 0.388916 13.7467 0.388916 13.7467C0.388916 13.7467 0.388916 19.8029 1.22426 22.7266C1.64193 24.2929 2.89494 25.5459 4.46121 26.068C7.3849 26.7989 18.9753 26.7989 18.9753 26.7989C18.9753 26.7989 30.5656 26.7989 33.4893 26.068C35.0556 25.6503 36.3086 24.3973 36.7263 22.7266C37.5616 19.8029 37.5616 13.7467 37.5616 13.7467C37.5616 13.7467 37.5616 7.69044 36.7263 4.76675ZM15.2162 19.2808V8.10811L24.8227 13.6422L15.2162 19.2808Z" fill="#BA97FF"/>
</svg>
